<?xml version="1.0" encoding="UTF-8"?>
<svg version="1.1" xmlns="http://www.w3.org/2000/svg" width="200" height="200">
<path d="M0 0 C66 0 132 0 200 0 C200 66 200 132 200 200 C134 200 68 200 0 200 C0 134 0 68 0 0 Z " fill="#FDFDFD" transform="translate(0,0)"/>
<path d="M0 0 C3.3 0 6.6 0 10 0 C10 15.51 10 31.02 10 47 C11.32 47 12.64 47 14 47 C14 47.99 14 48.98 14 50 C4.43 50 -5.14 50 -15 50 C-15 49.01 -15 48.02 -15 47 C-13.35 47 -11.7 47 -10 47 C-10.5259375 46.13375 -10.5259375 46.13375 -11.0625 45.25 C-12.18065988 42.56641628 -11.92603121 41.69390896 -11 39 C-9.9706844 35.93532406 -9.9706844 35.93532406 -11 33 C-9.8553125 32.4121875 -9.8553125 32.4121875 -8.6875 31.8125 C-5.74308242 29.82673 -4.72532946 28.03986619 -3 25 C-2.34 25 -1.68 25 -1 25 C-0.15672251 16.64251778 0.12190678 8.39802254 0 0 Z " fill="#BEC2E2" transform="translate(54,81)"/>
<path d="M0 0 C11.22 0 22.44 0 34 0 C33 14 33 14 29.9375 17.375 C28.968125 17.91125 27.99875 18.4475 27 19 C27 14.71 27 10.42 27 6 C24.03 6 21.06 6 18 6 C18.33 7.65 18.66 9.3 19 11 C18.01 10.67 17.02 10.34 16 10 C16.33 10.99 16.66 11.98 17 13 C17.99 13 18.98 13 20 13 C22 13 24 13 26 13 C26 14.98 26 16.96 26 19 C22.04 19 18.08 19 14 19 C14 19.66 14 20.32 14 21 C13.67 21.66 13.34 22.32 13 23 C12.34 22.01 11.68 21.02 11 20 C9.96994204 22.66098306 9.77045827 24.41798661 10.82421875 27.08984375 C11.19160156 27.84394531 11.55898438 28.59804687 11.9375 29.375 C13.89232138 33.51019908 14.75897782 36.3618022 14 41 C11.87978837 45.5169726 9.37233222 49.40898831 5 52 C5.2784375 50.576875 5.2784375 50.576875 5.5625 49.125 C6.28686632 46.10131207 6.28686632 46.10131207 5 44 C5.61875 43.938125 6.2375 43.87625 6.875 43.8125 C9.22892349 43.1770915 9.22892349 43.1770915 10.25 40.6875 C11.17919931 37.82290068 11.17919931 37.82290068 11 34 C10.73445313 34.56589844 10.46890625 35.13179687 10.1953125 35.71484375 C9.84210937 36.44832031 9.48890625 37.18179688 9.125 37.9375 C8.77695312 38.66839844 8.42890625 39.39929688 8.0703125 40.15234375 C7 42 7 42 5 43 C5.66 41.02 6.32 39.04 7 37 C6.34 37 5.68 37 5 37 C5 36.01 5 35.02 5 34 C5.66 34 6.32 34 7 34 C6.65555119 31.52733235 6.65555119 31.52733235 6 29 C5.34 28.67 4.68 28.34 4 28 C4.33 25.69 4.66 23.38 5 21 C3.68 20.67 2.36 20.34 1 20 C2.65 19.67 4.3 19.34 6 19 C5.01 17.68 4.02 16.36 3 15 C8.625 13 8.625 13 12 13 C12 10.36 12 7.72 12 5 C8.04 5 4.08 5 0 5 C0 3.35 0 1.7 0 0 Z " fill="#4F4D89" transform="translate(38,61)"/>
<path d="M0 0 C3.3 0 6.6 0 10 0 C10 14.52 10 29.04 10 44 C8.68 44 7.36 44 6 44 C6 41.36 6 38.72 6 36 C6.66 36 7.32 36 8 36 C8 34.02 8 32.04 8 30 C7.34 30 6.68 30 6 30 C5.67 31.98 5.34 33.96 5 36 C3.35 36 1.7 36 0 36 C0 31.71 0 27.42 0 23 C0.66 23.33 1.32 23.66 2 24 C2 25.32 2 26.64 2 28 C2.66 28 3.32 28 4 28 C4 26.02 4 24.04 4 22 C2.68 21.67 1.36 21.34 0 21 C0 14.07 0 7.14 0 0 Z " fill="#46488F" transform="translate(54,81)"/>
<path d="M0 0 C2.97 0 5.94 0 9 0 C9 20.13 9 40.26 9 61 C8.67 60.34 8.34 59.68 8 59 C5.97536745 58.34786708 5.97536745 58.34786708 4 58 C5.32 58 6.64 58 8 58 C8 43.48 8 28.96 8 14 C4.7 14 1.4 14 -2 14 C-2 18.29 -2 22.58 -2 27 C-0.68 27.66 0.64 28.32 2 29 C0.68 29.33 -0.64 29.66 -2 30 C-2.33 32.97 -2.66 35.94 -3 39 C-3.66 39 -4.32 39 -5 39 C-5.268125 39.763125 -5.53625 40.52625 -5.8125 41.3125 C-6.9666095 43.92443202 -7.71287883 45.32864222 -10 47 C-11.32 47 -12.64 47 -14 47 C-13 45 -13 45 -10.625 43.25 C-6.69488837 39.88133289 -5.23762437 36.79915597 -4.5625 31.6875 C-4.96739052 28.27485134 -5.56788269 26.60904498 -7.0625 23.625 C-9.4152726 18.82864602 -9.11556458 15.12917192 -8 10 C-7.34 11.32 -6.68 12.64 -6 14 C-6 12.68 -6 11.36 -6 10 C-5.44828125 10.31710938 -4.8965625 10.63421875 -4.328125 10.9609375 C-1.71522011 12.12709975 0.40579002 12.40045711 3.25 12.625 C4.14203125 12.69976562 5.0340625 12.77453125 5.953125 12.8515625 C6.96632813 12.92503906 6.96632813 12.92503906 8 13 C8 11.02 8 9.04 8 7 C3.92035719 8.30155006 3.92035719 8.30155006 0 10 C0 9.01 0 8.02 0 7 C-0.99 7.495 -0.99 7.495 -2 8 C-2.33 6.35 -2.66 4.7 -3 3 C-2.01 2.67 -1.02 2.34 0 2 C0 1.34 0 0.68 0 0 Z " fill="#D2D4F2" transform="translate(56,67)"/>
<path d="M0 0 C0.66 3.3 1.32 6.6 2 10 C1.01 9.01 0.02 8.02 -1 7 C-2.03005796 9.66098306 -2.22954173 11.41798661 -1.17578125 14.08984375 C-0.80839844 14.84394531 -0.44101562 15.59804687 -0.0625 16.375 C1.89232138 20.51019908 2.75897782 23.3618022 2 28 C-0.12021163 32.5169726 -2.62766778 36.40898831 -7 39 C-6.7215625 37.576875 -6.7215625 37.576875 -6.4375 36.125 C-5.71313368 33.10131207 -5.71313368 33.10131207 -7 31 C-6.38125 30.938125 -5.7625 30.87625 -5.125 30.8125 C-2.77107651 30.1770915 -2.77107651 30.1770915 -1.75 27.6875 C-0.82080069 24.82290068 -0.82080069 24.82290068 -1 21 C-1.39832031 21.84884766 -1.39832031 21.84884766 -1.8046875 22.71484375 C-2.15789063 23.44832031 -2.51109375 24.18179688 -2.875 24.9375 C-3.39707031 26.03384766 -3.39707031 26.03384766 -3.9296875 27.15234375 C-5 29 -5 29 -7 30 C-6.34 28.02 -5.68 26.04 -5 24 C-5.66 24 -6.32 24 -7 24 C-7 23.01 -7 22.02 -7 21 C-6.34 21 -5.68 21 -5 21 C-5.34444881 18.52733235 -5.34444881 18.52733235 -6 16 C-6.66 15.67 -7.32 15.34 -8 15 C-7.67 12.69 -7.34 10.38 -7 8 C-8.32 7.67 -9.64 7.34 -11 7 C-9.35 6.67 -7.7 6.34 -6 6 C-6.99 4.68 -7.98 3.36 -9 2 C-5.53785351 -0.05164237 -4.40610765 0 0 0 Z " fill="#8181A7" transform="translate(50,74)"/>
<path d="M0 0 C0.99 0 1.98 0 3 0 C3.33 3.63 3.66 7.26 4 11 C4.33 11 4.66 11 5 11 C5.33 7.37 5.66 3.74 6 0 C9.3 0 12.6 0 16 0 C16.04898438 0.78246094 16.09796875 1.56492187 16.1484375 2.37109375 C16.22320312 3.38300781 16.29796875 4.39492187 16.375 5.4375 C16.44460937 6.44683594 16.51421875 7.45617187 16.5859375 8.49609375 C16.72257812 9.32238281 16.85921875 10.14867188 17 11 C17.66 11.33 18.32 11.66 19 12 C19 10.35 19 8.7 19 7 C19.99 7 20.98 7 22 7 C21.67 8.65 21.34 10.3 21 12 C17.09019474 12.90789485 13.38627395 13.19467208 9.375 13.25 C8.24835938 13.27578125 7.12171875 13.3015625 5.9609375 13.328125 C3 13 3 13 1.11328125 11.80859375 C-0.39035781 9.36583977 -0.29838856 7.65863982 -0.1875 4.8125 C-0.16042969 3.91144531 -0.13335937 3.01039062 -0.10546875 2.08203125 C-0.07066406 1.39496094 -0.03585938 0.70789063 0 0 Z " fill="#DFDFEF" transform="translate(157,98)"/>
<path d="M0 0 C1 4 1 4 0.00390625 5.921875 C-0.47175781 6.52515625 -0.94742188 7.1284375 -1.4375 7.75 C-1.91058594 8.36359375 -2.38367187 8.9771875 -2.87109375 9.609375 C-3.24363281 10.06828125 -3.61617187 10.5271875 -4 11 C-3.01 11 -2.02 11 -1 11 C-0.34 10.34 0.32 9.68 1 9 C1 9.99 1 10.98 1 12 C1.66 12 2.32 12 3 12 C3 10.35 3 8.7 3 7 C3.66 7 4.32 7 5 7 C5 5.35 5 3.7 5 2 C5.99 2 6.98 2 8 2 C8.33 4.97 8.66 7.94 9 11 C11.64 11.33 14.28 11.66 17 12 C17 12.99 17 13.98 17 15 C7.43 15 -2.14 15 -12 15 C-12 14.01 -12 13.02 -12 12 C-10.35 12 -8.7 12 -7 12 C-7.350625 11.401875 -7.70125 10.80375 -8.0625 10.1875 C-9 8 -9 8 -8 5 C-7.34 5.66 -6.68 6.32 -6 7 C-4.02 4.69 -2.04 2.38 0 0 Z " fill="#393B81" transform="translate(51,116)"/>
<path d="M0 0 C11.22 0 22.44 0 34 0 C33.67 4.62 33.34 9.24 33 14 C32.67 14 32.34 14 32 14 C32 11.03 32 8.06 32 5 C21.44 5 10.88 5 0 5 C0 3.35 0 1.7 0 0 Z " fill="#34347C" transform="translate(38,61)"/>
<path d="M0 0 C0.33 1.32 0.66 2.64 1 4 C4.96 4 8.92 4 13 4 C13 6.64 13 9.28 13 12 C10.36 12.66 7.72 13.32 5 14 C5.66 15.32 6.32 16.64 7 18 C4.69 18.33 2.38 18.66 0 19 C-0.1799928 13.78020872 0.02905192 9.92737019 2 5 C1.34 5 0.68 5 0 5 C0 3.35 0 1.7 0 0 Z " fill="#BCBCC8" transform="translate(37,62)"/>
<path d="M0 0 C0.99 0 1.98 0 3 0 C6 5.75 6 5.75 6 8 C6.66 8 7.32 8 8 8 C8.309375 7.05125 8.61875 6.1025 8.9375 5.125 C10 2 10 2 11 0 C11.99 0 12.98 0 14 0 C15.20568053 4.67201205 15.09382426 9.21496292 15 14 C14.01 14 13.02 14 12 14 C11.67 11.69 11.34 9.38 11 7 C9.68 9.31 8.36 11.62 7 14 C6.34 14 5.68 14 5 14 C4.01 11.69 3.02 9.38 2 7 C1.67 9.31 1.34 11.62 1 14 C0.34 14 -0.32 14 -1 14 C-1.18451025 4.58997722 -1.18451025 4.58997722 0 0 Z " fill="#53548E" transform="translate(164,117)"/>
<path d="M0 0 C1.32 0 2.64 0 4 0 C4 10.89 4 21.78 4 33 C2.68 33 1.36 33 0 33 C0 30.36 0 27.72 0 25 C0.66 25 1.32 25 2 25 C2 23.02 2 21.04 2 19 C1.34 19 0.68 19 0 19 C0 17.02 0 15.04 0 13 C0.66 13 1.32 13 2 13 C2 10.69 2 8.38 2 6 C1.34 6 0.68 6 0 6 C0 4.02 0 2.04 0 0 Z " fill="#313384" transform="translate(60,92)"/>
<path d="M0 0 C0.66 0 1.32 0 2 0 C2 1.98 2 3.96 2 6 C1.34 6 0.68 6 0 6 C0 8.97 0 11.94 0 15 C1.32 15.33 2.64 15.66 4 16 C2.35 16.33 0.7 16.66 -1 17 C-1 13.7 -1 10.4 -1 7 C-1.99 7 -2.98 7 -4 7 C-4 8.65 -4 10.3 -4 12 C-4.66 12 -5.32 12 -6 12 C-6 13.65 -6 15.3 -6 17 C-9.11257569 17 -11.10765685 16.82638376 -14 16 C-13.6390625 15.55269531 -13.278125 15.10539062 -12.90625 14.64453125 C-9.86557578 10.76135613 -9.86557578 10.76135613 -8.6875 6.0625 C-8.790625 5.381875 -8.89375 4.70125 -9 4 C-8.34 3.67 -7.68 3.34 -7 3 C-6.34 3.66 -5.68 4.32 -5 5 C-4.01 5 -3.02 5 -2 5 C-1.34 3.35 -0.68 1.7 0 0 Z " fill="#8187C1" transform="translate(60,111)"/>
<path d="M0 0 C0 3.63 0 7.26 0 11 C-1.32 11 -2.64 11 -4 11 C-4 12.98 -4 14.96 -4 17 C-3.34 17 -2.68 17 -2 17 C-2 18.98 -2 20.96 -2 23 C-2.99 22.67 -3.98 22.34 -5 22 C-5 16.72 -5 11.44 -5 6 C-6.32 5.34 -7.64 4.68 -9 4 C-8.34 4 -7.68 4 -7 4 C-7 3.01 -7 2.02 -7 1 C-5 0 -5 0 0 0 Z " fill="#898DC3" transform="translate(64,81)"/>
<path d="M0 0 C2.64 0 5.28 0 8 0 C8 0.66 8 1.32 8 2 C6.68 2 5.36 2 4 2 C4 3.32 4 4.64 4 6 C5.32 6 6.64 6 8 6 C8 6.66 8 7.32 8 8 C6.68 8 5.36 8 4 8 C4 9.65 4 11.3 4 13 C5.32 13 6.64 13 8 13 C8 13.66 8 14.32 8 15 C5.36 15 2.72 15 0 15 C0 10.05 0 5.1 0 0 Z " fill="#605F99" transform="translate(136,116)"/>
<path d="M0 0 C6.6 0 13.2 0 20 0 C20 3.3 20 6.6 20 10 C18.35 11.32 16.7 12.64 15 14 C15 9.71 15 5.42 15 1 C12.03 1 9.06 1 6 1 C6 1.66 6 2.32 6 3 C4.35 3 2.7 3 1 3 C0.67 2.01 0.34 1.02 0 0 Z " fill="#C8CCEB" transform="translate(50,66)"/>
<path d="M0 0 C0.99 0 1.98 0 3 0 C3 1.32 3 2.64 3 4 C4.98 4 6.96 4 9 4 C9.1875 7.375 9.1875 7.375 9 11 C6 13 6 13 3.9375 12.75 C2 12 2 12 0 10 C-0.1953125 7.6171875 -0.1953125 7.6171875 -0.125 4.875 C-0.10695313 3.96492188 -0.08890625 3.05484375 -0.0703125 2.1171875 C-0.04710938 1.41851562 -0.02390625 0.71984375 0 0 Z " fill="#B2B3CE" transform="translate(112,98)"/>
<path d="M0 0 C3.3 0 6.6 0 10 0 C10 3.96 10 7.92 10 12 C9.01 11.67 8.02 11.34 7 11 C5.39274365 7.78548731 5.94251815 4.56387464 6 1 C5.01 1 4.02 1 3 1 C3 4.3 3 7.6 3 11 C2.01 11.33 1.02 11.66 0 12 C0 8.04 0 4.08 0 0 Z " fill="#A1A2C6" transform="translate(129,98)"/>
<path d="M0 0 C0.99 0 1.98 0 3 0 C3.33 3.63 3.66 7.26 4 11 C4.33 11 4.66 11 5 11 C5.33 7.37 5.66 3.74 6 0 C6.99 0 7.98 0 9 0 C9.33 3.96 9.66 7.92 10 12 C6.6875 12.6875 6.6875 12.6875 3 13 C1.28125 11.84375 1.28125 11.84375 0 10 C-0.29296875 7.51953125 -0.29296875 7.51953125 -0.1875 4.8125 C-0.16042969 3.91144531 -0.13335937 3.01039062 -0.10546875 2.08203125 C-0.07066406 1.39496094 -0.03585938 0.70789063 0 0 Z " fill="#5D5D92" transform="translate(157,98)"/>
<path d="M0 0 C8.58 0 17.16 0 26 0 C25.67 0.99 25.34 1.98 25 3 C16.75 3 8.5 3 0 3 C0 2.01 0 1.02 0 0 Z " fill="#302F8F" transform="translate(39,62)"/>
<path d="M0 0 C2.97 0 5.94 0 9 0 C9 2.31 9 4.62 9 7 C7.88625 7.309375 6.7725 7.61875 5.625 7.9375 C2.2054845 8.82326483 2.2054845 8.82326483 0 10 C0 9.01 0 8.02 0 7 C-0.99 7.495 -0.99 7.495 -2 8 C-2.33 6.35 -2.66 4.7 -3 3 C-2.01 2.67 -1.02 2.34 0 2 C0 1.34 0 0.68 0 0 Z " fill="#ECEDF9" transform="translate(56,67)"/>
<path d="M0 0 C0.99 0 1.98 0 3 0 C3.06058594 0.69867188 3.12117187 1.39734375 3.18359375 2.1171875 C3.26738281 3.02726562 3.35117188 3.93734375 3.4375 4.875 C3.55931641 6.23238281 3.55931641 6.23238281 3.68359375 7.6171875 C3.86989285 10.01110861 3.86989285 10.01110861 5 12 C6.65 11.67 8.3 11.34 10 11 C10.33 7.37 10.66 3.74 11 0 C11.66 0 12.32 0 13 0 C13.08153933 1.58246707 13.13943557 3.16616273 13.1875 4.75 C13.22230469 5.63171875 13.25710937 6.5134375 13.29296875 7.421875 C12.94181218 10.51205282 12.19268229 11.81735287 10 14 C4.07825167 14.74021854 4.07825167 14.74021854 1.29296875 12.828125 C-0.52006871 10.26467627 -0.2970161 8.41545627 -0.1875 5.3125 C-0.16042969 4.31863281 -0.13335937 3.32476562 -0.10546875 2.30078125 C-0.07066406 1.54152344 -0.03585938 0.78226562 0 0 Z " fill="#4D4D82" transform="translate(147,117)"/>
<path d="M0 0 C0.66 0.33 1.32 0.66 2 1 C2 1.66 2 2.32 2 3 C0.865625 2.979375 -0.26875 2.95875 -1.4375 2.9375 C-4.81575674 2.58422523 -4.81575674 2.58422523 -6 4 C-6.30523962 8.65088715 -6.30523962 8.65088715 -5 13 C-2.47266765 13.65555119 -2.47266765 13.65555119 0 14 C0 14.33 0 14.66 0 15 C-3.25 15.3125 -3.25 15.3125 -7 15 C-9.5 12.9375 -9.5 12.9375 -11 10 C-11 6.1862249 -10.84985071 3.97575452 -8.3125 1.0625 C-5.37084049 -0.28907329 -3.20371381 -0.27858381 0 0 Z " fill="#59588E" transform="translate(132,116)"/>
<path d="M0 0 C0.66 3.3 1.32 6.6 2 10 C1.01 9.01 0.02 8.02 -1 7 C-2.65 8.65 -4.3 10.3 -6 12 C-6.33 10.68 -6.66 9.36 -7 8 C-8.32 7.67 -9.64 7.34 -11 7 C-9.35 6.67 -7.7 6.34 -6 6 C-6.99 4.68 -7.98 3.36 -9 2 C-5.53785351 -0.05164237 -4.40610765 0 0 0 Z " fill="#9596B8" transform="translate(50,74)"/>
<path d="M0 0 C1.32 0.33 2.64 0.66 4 1 C4.33 2.32 4.66 3.64 5 5 C5.66 5 6.32 5 7 5 C7.66 3.35 8.32 1.7 9 0 C9.66 0.33 10.32 0.66 11 1 C10.2884375 1.99 10.2884375 1.99 9.5625 3 C7.58682146 6.7933028 7.35972537 9.75524068 7 14 C6.01 14 5.02 14 4 14 C3.896875 12.948125 3.79375 11.89625 3.6875 10.8125 C3.01750713 7.09708498 2.03743581 5.10044579 0 2 C0 1.34 0 0.68 0 0 Z " fill="#464484" transform="translate(109,117)"/>
<path d="M0 0 C2.64 0 5.28 0 8 0 C8.33 0.66 8.66 1.32 9 2 C8.01 2.33 7.02 2.66 6 3 C6.495 3.391875 6.99 3.78375 7.5 4.1875 C9.45593143 6.55091715 9.24207973 8.01435003 9 11 C8.01 11 7.02 11 6 11 C5.71125 9.865625 5.4225 8.73125 5.125 7.5625 C4.75375 6.386875 4.3825 5.21125 4 4 C3.34 3.67 2.68 3.34 2 3 C1.67 5.64 1.34 8.28 1 11 C0.01 11 -0.98 11 -2 11 C-2.125 8.625 -2.125 8.625 -2 6 C-1.34 5.34 -0.68 4.68 0 4 C0 2.68 0 1.36 0 0 Z " fill="#5B5889" transform="translate(101,99)"/>
<path d="M0 0 C0.66 1.32 1.32 2.64 2 4 C2 2.68 2 1.36 2 0 C3.32 0.66 4.64 1.32 6 2 C6 6.29 6 10.58 6 15 C0.06090299 9.21318753 0.06090299 9.21318753 -0.09765625 6.0546875 C-0.06510417 4.03645833 -0.03255208 2.01822917 0 0 Z " fill="#CFD1E3" transform="translate(48,77)"/>
<path d="M0 0 C1 4 1 4 0.00390625 5.921875 C-0.47175781 6.52515625 -0.94742188 7.1284375 -1.4375 7.75 C-1.91058594 8.36359375 -2.38367187 8.9771875 -2.87109375 9.609375 C-3.24363281 10.06828125 -3.61617187 10.5271875 -4 11 C-3.34 11.66 -2.68 12.32 -2 13 C-4.97 13 -7.94 13 -11 13 C-11.33 13.66 -11.66 14.32 -12 15 C-12 14.01 -12 13.02 -12 12 C-10.35 12 -8.7 12 -7 12 C-7.350625 11.401875 -7.70125 10.80375 -8.0625 10.1875 C-9 8 -9 8 -8 5 C-7.34 5.66 -6.68 6.32 -6 7 C-4.02 4.69 -2.04 2.38 0 0 Z " fill="#4B4B88" transform="translate(51,116)"/>
<path d="M0 0 C2 2 2 2 2.4375 5.125 C1.77687721 10.97623042 -0.87661793 15.16356145 -5.3125 19 C-5.869375 19.33 -6.42625 19.66 -7 20 C-6.814375 19.05125 -6.62875 18.1025 -6.4375 17.125 C-5.71313368 14.10131207 -5.71313368 14.10131207 -7 12 C-6.38125 11.938125 -5.7625 11.87625 -5.125 11.8125 C-2.79341824 11.18508214 -2.79341824 11.18508214 -1.8125 8.8125 C-0.96681452 5.8851272 -0.42086975 3.01623321 0 0 Z " fill="#4F4D8B" transform="translate(50,93)"/>
<path d="M0 0 C0.99 0 1.98 0 3 0 C3 3.96 3 7.92 3 12 C4.65 12 6.3 12 8 12 C8 12.66 8 13.32 8 14 C5.36 14 2.72 14 0 14 C0 9.38 0 4.76 0 0 Z " fill="#43407D" transform="translate(99,117)"/>
<path d="M0 0 C0.33 0 0.66 0 1 0 C1.06058594 0.62648438 1.12117187 1.25296875 1.18359375 1.8984375 C1.26738281 2.71570313 1.35117188 3.53296875 1.4375 4.375 C1.55931641 5.59316406 1.55931641 5.59316406 1.68359375 6.8359375 C1.89090114 9.04272805 1.89090114 9.04272805 3 11 C1.35 11.33 -0.3 11.66 -2 12 C-2 11.34 -2 10.68 -2 10 C-3.32 10 -4.64 10 -6 10 C-6 8.35 -6 6.7 -6 5 C-4.68 5 -3.36 5 -2 5 C-1.34 3.35 -0.68 1.7 0 0 Z " fill="#F1F3FA" transform="translate(146,119)"/>
<path d="M0 0 C0 2.64 0 5.28 0 8 C-1.9914056 8.38133299 -3.99279077 8.71325582 -6 9 C-7 8 -7 8 -7.375 5.625 C-7 3 -7 3 -4.625 1.1875 C-2 0 -2 0 0 0 Z " fill="#F1F3FA" transform="translate(50,66)"/>
<path d="M0 0 C1.24284687 2.93763806 1.01320986 3.96662773 -0.1875 7 C-1.88635609 9.81189974 -3.56575933 11.81757733 -6 14 C-6.66 13.67 -7.32 13.34 -8 13 C-7.814375 12.38125 -7.62875 11.7625 -7.4375 11.125 C-6.76313824 8.95839822 -6.76313824 8.95839822 -8 7 C-7.236875 6.5875 -6.47375 6.175 -5.6875 5.75 C-3.0633358 4.04124191 -1.69678024 2.58982247 0 0 Z " fill="#4B4C8A" transform="translate(51,107)"/>
<path d="M0 0 C2.0625 0.4375 2.0625 0.4375 4 1 C3.01 1 2.02 1 1 1 C1 1.66 1 2.32 1 3 C1.99 3 2.98 3 4 3 C3.814375 3.598125 3.62875 4.19625 3.4375 4.8125 C2.77906313 7.16408762 2.77906313 7.16408762 4 10 C3.01 10 2.02 10 1 10 C1 10.66 1 11.32 1 12 C2.32 12 3.64 12 5 12 C4.75 13.875 4.75 13.875 4 16 C1.9375 17.25 1.9375 17.25 0 18 C0.185625 17.360625 0.37125 16.72125 0.5625 16.0625 C0.706875 15.381875 0.85125 14.70125 1 14 C0.67 13.67 0.34 13.34 0 13 C-0.04346799 11.00047242 -0.039992 8.99960012 0 7 C0.15811388 3.94729537 0.15811388 3.94729537 -1 1 C-0.67 0.67 -0.34 0.34 0 0 Z " fill="#A2A3B5" transform="translate(86,81)"/>
<path d="M0 0 C0.99 0.495 0.99 0.495 2 1 C2.33 1.99 2.66 2.98 3 4 C3.66 4 4.32 4 5 4 C5.66 6.97 6.32 9.94 7 13 C5.35 13.33 3.7 13.66 2 14 C2.33 11.36 2.66 8.72 3 6 C2.01 5.67 1.02 5.34 0 5 C0 3.35 0 1.7 0 0 Z " fill="#ACADBE" transform="translate(83,66)"/>
<path d="M0 0 C1.32 0.66 2.64 1.32 4 2 C4 3.98 4 5.96 4 8 C4.99 8.33 5.98 8.66 7 9 C3.37 9 -0.26 9 -4 9 C-3.01 8.67 -2.02 8.34 -1 8 C-1.020625 7.05125 -1.04125 6.1025 -1.0625 5.125 C-1 2 -1 2 0 0 Z " fill="#DCDFEB" transform="translate(103,102)"/>
<path d="M0 0 C2.625 0.375 2.625 0.375 5 1 C5.33 2.65 5.66 4.3 6 6 C5.34 6 4.68 6 4 6 C3.87625 5.360625 3.7525 4.72125 3.625 4.0625 C3.41875 3.381875 3.2125 2.70125 3 2 C2.34 1.67 1.68 1.34 1 1 C1 4.63 1 8.26 1 12 C0.01 12 -0.98 12 -2 12 C-2.05395478 10.37536158 -2.09277195 8.75021459 -2.125 7.125 C-2.14820313 6.22007813 -2.17140625 5.31515625 -2.1953125 4.3828125 C-2 2 -2 2 0 0 Z " fill="#4F4D85" transform="translate(149,98)"/>
<path d="M0 0 C2.0625 0.4375 2.0625 0.4375 4 1 C3.01 1 2.02 1 1 1 C1 1.66 1 2.32 1 3 C1.99 3.33 2.98 3.66 4 4 C4.33 7.63 4.66 11.26 5 15 C2.525 14.01 2.525 14.01 0 13 C0 11.68 0 10.36 0 9 C-0.33 8.34 -0.66 7.68 -1 7 C-1.125 3.9375 -1.125 3.9375 -1 1 C-0.67 0.67 -0.34 0.34 0 0 Z " fill="#AEAFC0" transform="translate(86,115)"/>
<path d="M0 0 C1.2065625 0.0309375 1.2065625 0.0309375 2.4375 0.0625 C2.4375 2.0425 2.4375 4.0225 2.4375 6.0625 C-0.5325 6.0625 -3.5025 6.0625 -6.5625 6.0625 C-3.03077411 0.07392132 -3.03077411 0.07392132 0 0 Z " fill="#333486" transform="translate(61.5625,73.9375)"/>
<path d="M0 0 C1.5625 1.8125 1.5625 1.8125 3 4 C2 7 2 7 1 8 C0.7834375 8.8971875 0.7834375 8.8971875 0.5625 9.8125 C-0.02121693 12.08251029 -0.89635955 13.93987116 -2 16 C-3.32 15.67 -4.64 15.34 -6 15 C-5.01 15 -4.02 15 -3 15 C-3.33 13.35 -3.66 11.7 -4 10 C-3.01 10 -2.02 10 -1 10 C-1.66 9.01 -2.32 8.02 -3 7 C-2.625 4.8125 -2.625 4.8125 -2 3 C-1.34 3 -0.68 3 0 3 C0 2.01 0 1.02 0 0 Z " fill="#9E9FB2" transform="translate(26,62)"/>
<path d="M0 0 C1.32 0.66 2.64 1.32 4 2 C3.67 4.31 3.34 6.62 3 9 C2.01 9 1.02 9 0 9 C0 9.66 0 10.32 0 11 C0.99 11.33 1.98 11.66 3 12 C1.68 12 0.36 12 -1 12 C-1.02687279 10.18757948 -1.04633715 8.37504767 -1.0625 6.5625 C-1.07410156 5.55316406 -1.08570312 4.54382813 -1.09765625 3.50390625 C-1 1 -1 1 0 0 Z " fill="#9B9BB1" transform="translate(87,102)"/>
<path d="M0 0 C0.66 0 1.32 0 2 0 C2.07347656 1.06541016 2.07347656 1.06541016 2.1484375 2.15234375 C2.22320312 3.07144531 2.29796875 3.99054688 2.375 4.9375 C2.44460937 5.85402344 2.51421875 6.77054687 2.5859375 7.71484375 C2.72257813 8.46894531 2.85921875 9.22304687 3 10 C3.66 10.33 4.32 10.66 5 11 C5 9.35 5 7.7 5 6 C5.99 6 6.98 6 8 6 C7.67 7.65 7.34 9.3 7 11 C4.625 11.625 4.625 11.625 2 12 C0 10 0 10 -0.1953125 7.6171875 C-0.17210937 6.71226563 -0.14890625 5.80734375 -0.125 4.875 C-0.10695312 3.96492188 -0.08890625 3.05484375 -0.0703125 2.1171875 C-0.04710937 1.41851562 -0.02390625 0.71984375 0 0 Z " fill="#373874" transform="translate(171,99)"/>
<path d="M0 0 C0.66 0 1.32 0 2 0 C2 2.97 2 5.94 2 9 C-1.11257569 9 -3.10765685 8.82638376 -6 8 C-5.04956626 6.66102417 -4.08940853 5.32894573 -3.125 4 C-2.59132812 3.2575 -2.05765625 2.515 -1.5078125 1.75 C-1.01023437 1.1725 -0.51265625 0.595 0 0 Z " fill="#D2D5ED" transform="translate(52,119)"/>
<path d="M0 0 C0.99 0 1.98 0 3 0 C3 1.32 3 2.64 3 4 C4.98 4 6.96 4 9 4 C9 4.33 9 4.66 9 5 C7.02 5 5.04 5 3 5 C3 7.31 3 9.62 3 12 C2.01 11.34 1.02 10.68 0 10 C-0.29296875 7.6171875 -0.29296875 7.6171875 -0.1875 4.875 C-0.16042969 3.96492188 -0.13335937 3.05484375 -0.10546875 2.1171875 C-0.07066406 1.41851562 -0.03585938 0.71984375 0 0 Z " fill="#535588" transform="translate(112,98)"/>
<path d="M0 0 C0.99 0.495 0.99 0.495 2 1 C2 2.32 2 3.64 2 5 C2.66 5 3.32 5 4 5 C4 7.31 4 9.62 4 12 C2.68 12.33 1.36 12.66 0 13 C0 8.71 0 4.42 0 0 Z " fill="#3A3882" transform="translate(54,104)"/>
<path d="M0 0 C0.66 0 1.32 0 2 0 C3.14889133 3.93905597 3.52582695 7.93565958 4 12 C2.35 12.33 0.7 12.66 -1 13 C-0.01 12.67 0.98 12.34 2 12 C2 11.34 2 10.68 2 10 C0.68 10 -0.64 10 -2 10 C-2 9.01 -2 8.02 -2 7 C-0.68 7 0.64 7 2 7 C2 6.34 2 5.68 2 5 C1.01 4.67 0.02 4.34 -1 4 C-0.67 2.68 -0.34 1.36 0 0 Z " fill="#AEAEBD" transform="translate(21,99)"/>
<path d="M0 0 C1.09658936 3.28976808 0.79953138 4.71303767 0 8 C-0.66 8 -1.32 8 -2 8 C-2.268125 8.763125 -2.53625 9.52625 -2.8125 10.3125 C-3.9666095 12.92443202 -4.71287883 14.32864222 -7 16 C-8.32 16 -9.64 16 -11 16 C-10 14 -10 14 -7.75 12.5 C-3.87028675 8.97298796 -2.12268418 4.73313408 0 0 Z " fill="#EAEEFC" transform="translate(53,98)"/>
<path d="M0 0 C1.32 0.33 2.64 0.66 4 1 C4.10836453 2.43583001 4.18576167 3.8740202 4.25 5.3125 C4.29640625 6.11300781 4.3428125 6.91351563 4.390625 7.73828125 C4 10 4 10 0 13 C0 8.71 0 4.42 0 0 Z " fill="#444581" transform="translate(65,67)"/>
<path d="M0 0 C1.65 0 3.3 0 5 0 C4.01 0.495 4.01 0.495 3 1 C3.33 3.64 3.66 6.28 4 9 C2.68 9.99 1.36 10.98 0 12 C0 8.04 0 4.08 0 0 Z " fill="#333282" transform="translate(54,81)"/>
<path d="M0 0 C0 1.65 0 3.3 0 5 C-0.99 4.67 -1.98 4.34 -3 4 C-3 3.34 -3 2.68 -3 2 C-3.66 2 -4.32 2 -5 2 C-5.103125 2.639375 -5.20625 3.27875 -5.3125 3.9375 C-5.539375 4.618125 -5.76625 5.29875 -6 6 C-6.99 6.33 -7.98 6.66 -9 7 C-9.66 6.34 -10.32 5.68 -11 5 C-10.67 4.01 -10.34 3.02 -10 2 C-9.67 2.66 -9.34 3.32 -9 4 C-8.34 3.01 -7.68 2.02 -7 1 C-4.53721199 -0.231394 -2.7204945 -0.07159196 0 0 Z " fill="#ACADB9" transform="translate(56,46)"/>
<path d="M0 0 C0.99 0 1.98 0 3 0 C3.05395478 1.62463842 3.09277195 3.24978541 3.125 4.875 C3.14820313 5.77992187 3.17140625 6.68484375 3.1953125 7.6171875 C3 10 3 10 1 12 C0 11 0 11 -0.09765625 8.49609375 C-0.08605469 7.48675781 -0.07445312 6.47742188 -0.0625 5.4375 C-0.05347656 4.42558594 -0.04445312 3.41367188 -0.03515625 2.37109375 C-0.02355469 1.58863281 -0.01195312 0.80617188 0 0 Z " fill="#3C3E7D" transform="translate(147,117)"/>
<path d="M0 0 C0.99 0 1.98 0 3 0 C3 3.96 3 7.92 3 12 C2.01 11.34 1.02 10.68 0 10 C-0.29296875 7.6171875 -0.29296875 7.6171875 -0.1875 4.875 C-0.16042969 3.96492188 -0.13335937 3.05484375 -0.10546875 2.1171875 C-0.07066406 1.41851562 -0.03585938 0.71984375 0 0 Z " fill="#4D4B86" transform="translate(123,98)"/>
<path d="M0 0 C0.99 0 1.98 0 3 0 C3 3.3 3 6.6 3 10 C2.01 10.33 1.02 10.66 0 11 C0 7.37 0 3.74 0 0 Z " fill="#454581" transform="translate(129,99)"/>
<path d="M0 0 C0.33 0 0.66 0 1 0 C0.25 7.625 0.25 7.625 -2 11 C-4.625 11.1875 -4.625 11.1875 -7 11 C-6 9 -6 9 -4.625 7.75 C-2.47134685 5.43068122 -1.33116323 2.85249263 0 0 Z " fill="#E2E6F5" transform="translate(49,94)"/>
<path d="M0 0 C0 3.63 0 7.26 0 11 C-0.99 11 -1.98 11 -3 11 C-3 7.7 -3 4.4 -3 1 C-1 0 -1 0 0 0 Z " fill="#E8EAF8" transform="translate(163,98)"/>
<path d="M0 0 C0.33 1.32 0.66 2.64 1 4 C2.98 4 4.96 4 7 4 C7 4.66 7 5.32 7 6 C6.34 6 5.68 6 5 6 C5 7.65 5 9.3 5 11 C4.01 11 3.02 11 2 11 C2 9.02 2 7.04 2 5 C1.34 5 0.68 5 0 5 C0 3.35 0 1.7 0 0 Z " fill="#DFE0EF" transform="translate(37,62)"/>
<path d="M0 0 C1.32 0 2.64 0 4 0 C4 1.32 4 2.64 4 4 C4.66 4 5.32 4 6 4 C6.33 3.34 6.66 2.68 7 2 C8.32 2.33 9.64 2.66 11 3 C11 3.99 11 4.98 11 6 C7.04 5.67 3.08 5.34 -1 5 C-0.67 3.35 -0.34 1.7 0 0 Z " fill="#AAABB9" transform="translate(57,47)"/>
<path d="M0 0 C2 1 2 1 2 1 Z M-6 -2 C-5.01 -1.67 -4.02 -1.34 -3 -1 C-3 -0.34 -3 0.32 -3 1 C-2.01 1.33 -1.02 1.66 0 2 C-6.27 2 -12.54 2 -19 2 C-19 1.67 -19 1.34 -19 1 C-10.57142857 -0.28571429 -10.57142857 -0.28571429 -6 1 C-6 0.01 -6 -0.98 -6 -2 Z " fill="#303188" transform="translate(61,128)"/>
<path d="M0 0 C0.99 0 1.98 0 3 0 C2.67 0.99 2.34 1.98 2 3 C1.67 2.67 1.34 2.34 1 2 C0.608125 2.7425 0.21625 3.485 -0.1875 4.25 C-2.13038842 7.19783071 -4.16468467 8.93098611 -7 11 C-7.33 10.01 -7.66 9.02 -8 8 C-6.50260417 6.79557292 -5.00520833 5.59114583 -3.5078125 4.38671875 C-1.74707893 2.87729455 -1.74707893 2.87729455 0 0 Z " fill="#E1E4FA" transform="translate(51,113)"/>
<path d="M0 0 C1.32 0 2.64 0 4 0 C4 2.97 4 5.94 4 9 C3.34 9 2.68 9 2 9 C2 7.68 2 6.36 2 5 C1.34 5 0.68 5 0 5 C0 3.35 0 1.7 0 0 Z " fill="#333380" transform="translate(60,81)"/>
<path d="M0 0 C0.66 0 1.32 0 2 0 C2 0.99 2 1.98 2 3 C2.99 3.33 3.98 3.66 5 4 C5 4.66 5 5.32 5 6 C3.34385343 6.38218767 1.67542976 6.71395102 0 7 C-1 6 -1 6 -1.125 3.5 C-1 1 -1 1 0 0 Z " fill="#F8F9FB" transform="translate(39,74)"/>
<path d="M0 0 C1.98 0.99 1.98 0.99 4 2 C3.34 2 2.68 2 2 2 C2.02320313 2.61488281 2.04640625 3.22976562 2.0703125 3.86328125 C2.08835938 4.67152344 2.10640625 5.47976562 2.125 6.3125 C2.14820313 7.11300781 2.17140625 7.91351563 2.1953125 8.73828125 C2 11 2 11 0 14 C0 9.38 0 4.76 0 0 Z " fill="#5A5CA4" transform="translate(58,103)"/>
<path d="M0 0 C0.66 0 1.32 0 2 0 C2.33 3.96 2.66 7.92 3 12 C1.68 11.67 0.36 11.34 -1 11 C-0.67 7.37 -0.34 3.74 0 0 Z " fill="#3E3E82" transform="translate(142,98)"/>
<path d="M0 0 C0.33 0.66 0.66 1.32 1 2 C1.99 2 2.98 2 4 2 C4 3.98 4 5.96 4 8 C2.68 8 1.36 8 0 8 C0 5.33333333 0 2.66666667 0 0 Z " fill="#B0B0C0" transform="translate(20,123)"/>
<path d="M0 0 C0.66 0 1.32 0 2 0 C2.33 3.63 2.66 7.26 3 11 C2.01 11.495 2.01 11.495 1 12 C0.67 11.01 0.34 10.02 0 9 C-0.66 8.34 -1.32 7.68 -2 7 C-1.6730244 4.38419521 -1.17960932 2.35921863 0 0 Z " fill="#E5E6F5" transform="translate(155,98)"/>
<path d="M0 0 C3 0 3 0 5 1 C4.01 2.98 3.02 4.96 2 7 C0.68 6.67 -0.64 6.34 -2 6 C-1.34 4.02 -0.68 2.04 0 0 Z " fill="#8A8CB8" transform="translate(53,73)"/>
<path d="M0 0 C0.721875 0.804375 1.44375 1.60875 2.1875 2.4375 C5.02515689 5.02292072 6.27166147 5.68042813 10 6 C10 6.33 10 6.66 10 7 C3.56461405 7.36426713 3.56461405 7.36426713 1.0625 5.75 C0 4 0 4 0 0 Z " fill="#424279" transform="translate(122,124)"/>
<path d="M0 0 C0.66 0 1.32 0 2 0 C2.33 3.63 2.66 7.26 3 11 C2.01 10.67 1.02 10.34 0 10 C0 6.7 0 3.4 0 0 Z " fill="#373578" transform="translate(164,99)"/>
<path d="M0 0 C0.66 0 1.32 0 2 0 C2.33 3.63 2.66 7.26 3 11 C2.01 10.67 1.02 10.34 0 10 C0 6.7 0 3.4 0 0 Z " fill="#39387E" transform="translate(136,99)"/>
<path d="M0 0 C0.99 0.33 1.98 0.66 3 1 C3.33 2.65 3.66 4.3 4 6 C3.01 6.33 2.02 6.66 1 7 C0.67 7.66 0.34 8.32 0 9 C0 6.03 0 3.06 0 0 Z " fill="#EFF2FB" transform="translate(150,99)"/>
<path d="M0 0 C1.65 0 3.3 0 5 0 C4.75 2.375 4.75 2.375 4 5 C1.9375 6.3125 1.9375 6.3125 0 7 C0.185625 6.21625 0.37125 5.4325 0.5625 4.625 C1.25962266 2.02910225 1.25962266 2.02910225 0 0 Z " fill="#404081" transform="translate(43,114)"/>
<path d="M0 0 C1.65 0 3.3 0 5 0 C5 3.3 5 6.6 5 10 C1.65094547 6.65094547 1.10529715 4.50621146 0 0 Z " fill="#8384C1" transform="translate(65,66)"/>
<path d="M0 0 C2 1.125 2 1.125 4 3 C4.25 6.1875 4.25 6.1875 4 9 C3.34 9 2.68 9 2 9 C2 7.68 2 6.36 2 5 C1.34 5 0.68 5 0 5 C-0.5625 3.0625 -0.5625 3.0625 -1 1 C-0.67 0.67 -0.34 0.34 0 0 Z " fill="#AAACCD" transform="translate(52,114)"/>
<path d="M0 0 C0.33 0 0.66 0 1 0 C2.42258812 3.82320557 3.24042276 6.91281305 3 11 C2.01 10.67 1.02 10.34 0 10 C0 6.7 0 3.4 0 0 Z " fill="#D4D4ED" transform="translate(173,99)"/>
<path d="M0 0 C0.66 0.33 1.32 0.66 2 1 C2.38063221 3.3260857 2.71269945 5.66055264 3 8 C3.33 8.66 3.66 9.32 4 10 C2.68 9.67 1.36 9.34 0 9 C-0.87890625 2.84765625 -0.87890625 2.84765625 -1 1 C-0.67 0.67 -0.34 0.34 0 0 Z " fill="#EEF3FB" transform="translate(121,100)"/>
<path d="M0 0 C2.1519437 3.22791555 2.20086443 4.28400809 2 8 C1.01 8 0.02 8 -1 8 C-1.04241723 5.66705225 -1.04092937 3.33297433 -1 1 C-0.67 0.67 -0.34 0.34 0 0 Z " fill="#393C79" transform="translate(177,123)"/>
<path d="M0 0 C1.43088528 2.86177057 0.59991697 4.93375773 0 8 C-0.99 8 -1.98 8 -3 8 C-3.36923077 3.44615385 -3.36923077 3.44615385 -1.5 1.1875 C-1.005 0.795625 -0.51 0.40375 0 0 Z " fill="#47427E" transform="translate(102,102)"/>
<path d="M0 0 C2.1723491 3.25852365 4.07119658 6.59244728 6 10 C5.01 10.33 4.02 10.66 3 11 C0 4.5 0 4.5 0 0 Z " fill="#E4E5F8" transform="translate(47,82)"/>
<path d="M0 0 C1.32 0.66 2.64 1.32 4 2 C4 2.99 4 3.98 4 5 C2.35 4.67 0.7 4.34 -1 4 C-0.67 2.68 -0.34 1.36 0 0 Z " fill="#BFC0CE" transform="translate(87,102)"/>
<path d="M0 0 C0.99 0 1.98 0 3 0 C3 1.98 3 3.96 3 6 C2.01 6 1.02 6 0 6 C0 4.02 0 2.04 0 0 Z " fill="#322E8D" transform="translate(55,110)"/>
<path d="M0 0 C0.99 0 1.98 0 3 0 C2.67 1.65 2.34 3.3 2 5 C0.35 5.33 -1.3 5.66 -3 6 C-2.01 5.67 -1.02 5.34 0 5 C0 3.35 0 1.7 0 0 Z " fill="#676690" transform="translate(176,105)"/>
<path d="M0 0 C0.99 0.33 1.98 0.66 3 1 C1.25 3 1.25 3 -1 5 C-2.32 5 -3.64 5 -5 5 C-3.73867769 2.47735539 -2.38561992 1.47347113 0 0 Z " fill="#D7DBF2" transform="translate(47,109)"/>
<path d="M0 0 C1.32 0 2.64 0 4 0 C3.60196439 2.88575819 3.20990931 3.82189513 0.9375 5.75 C0.298125 6.1625 -0.34125 6.575 -1 7 C-0.67 4.69 -0.34 2.38 0 0 Z " fill="#42407D" transform="translate(44,106)"/>
<path d="M0 0 C1.65 0 3.3 0 5 0 C4.01 0.495 4.01 0.495 3 1 C2.34444881 3.52733235 2.34444881 3.52733235 2 6 C1.34 6 0.68 6 0 6 C0 4.02 0 2.04 0 0 Z " fill="#494A84" transform="translate(54,81)"/>
</svg>
